<svg aria-hidden="true" style="position:absolute;width:0;height:0;overflow:hidden" xmlns="http://www.w3.org/2000/svg">
  <defs>
    <symbol id="icon-Instagram" viewBox="0 0 31 32">
      <path d="M15.608 6.705c3.128 0 3.498.014 4.728.069 1.143.05 1.76.242 2.172.402a3.63 3.63 0 0 1 1.344.874c.412.412.663.8.878 1.345.16.412.352 1.033.402 2.172.055 1.235.069 1.605.069 4.728s-.014 3.498-.069 4.728c-.05 1.143-.242 1.76-.402 2.172a3.617 3.617 0 0 1-.874 1.344c-.412.412-.8.663-1.344.878-.412.16-1.034.352-2.172.402-1.235.055-1.605.069-4.728.069s-3.498-.014-4.728-.069c-1.143-.05-1.76-.242-2.172-.402a3.629 3.629 0 0 1-1.345-.874 3.667 3.667 0 0 1-.878-1.344c-.16-.412-.352-1.034-.402-2.172-.055-1.235-.069-1.605-.069-4.728s.014-3.498.069-4.728c.05-1.143.242-1.76.402-2.172.211-.544.467-.937.874-1.345.412-.412.8-.663 1.345-.878.412-.16 1.033-.352 2.172-.402 1.23-.055 1.601-.069 4.728-.069h.001zm0-2.108c-3.178 0-3.575.014-4.824.069-1.244.055-2.099.256-2.839.544a5.696 5.696 0 0 0-2.076 1.353 5.728 5.728 0 0 0-1.353 2.071c-.288.746-.489 1.596-.544 2.839-.055 1.253-.069 1.651-.069 4.829s.014 3.575.069 4.824c.055 1.244.256 2.099.544 2.839a5.709 5.709 0 0 0 1.353 2.076A5.721 5.721 0 0 0 7.94 27.39c.746.288 1.596.489 2.839.544 1.248.055 1.646.069 4.824.069s3.576-.014 4.824-.069c1.244-.055 2.099-.256 2.839-.544.768-.297 1.422-.699 2.071-1.349s1.052-1.303 1.349-2.071c.288-.746.489-1.596.544-2.839.055-1.248.069-1.646.069-4.824s-.014-3.575-.069-4.824c-.055-1.244-.256-2.099-.544-2.839a5.483 5.483 0 0 0-1.34-2.081 5.721 5.721 0 0 0-2.071-1.349c-.746-.288-1.596-.489-2.839-.544-1.253-.059-1.651-.073-4.829-.073l-.001.001z"/>
      <path d="M15.608 10.289a6.014 6.014 0 1 0 6.013 6.013 6.014 6.014 0 0 0-6.013-6.013zm0 9.914a3.9 3.9 0 1 1 0-7.8 3.9 3.9 0 0 1 0 7.8zM23.261 10.052a1.404 1.404 0 1 1-2.808 0 1.404 1.404 0 0 1 2.808 0z"/>
    </symbol>
    <symbol id="icon-Facebook" viewBox="0 0 31 32">
      <path d="M28.618 16.699c0-7.228-5.824-13.088-13.008-13.088S2.602 9.471 2.602 16.699c0 6.532 4.757 11.947 10.976 12.929v-9.146h-3.303v-3.783h3.303v-2.883c0-3.28 1.942-5.092 4.913-5.092 1.423 0 2.912.256 2.912.256v3.221h-1.64c-1.616 0-2.12 1.009-2.12 2.044V16.7h3.608l-.577 3.783h-3.031v9.146c6.219-.982 10.976-6.396 10.976-12.929z"/>
    </symbol>
    <symbol id="icon-Youtube" viewBox="0 0 31 32">
      <path d="M28.089 10.063a3.258 3.258 0 0 0-2.292-2.297c-2.037-.559-10.187-.568-10.187-.568s-8.148-.009-10.187.526a3.326 3.326 0 0 0-2.297 2.313c-.537 2.037-.542 6.262-.542 6.262s-.005 4.246.528 6.262a3.26 3.26 0 0 0 2.293 2.296c2.058.559 10.185.568 10.185.568s8.15.009 10.187-.524a3.269 3.269 0 0 0 2.299-2.293c.539-2.036.542-6.259.542-6.259s.026-4.247-.529-6.284zM13.003 20.212l.006-7.805 6.773 3.909-6.78 3.896z"/>
    </symbol>
  </defs>
</svg>