<svg xmlns="http://www.w3.org/2000/svg" aria-hidden="true" style="position:absolute;width:0;height:0;overflow:hidden">
  <defs>
    <symbol id="logo" viewBox="0 0 110 32">
      <path
        d="M16.403.142c.434-.05.936.047 1.354.174.945.288 1.714.905 2.169 1.785.474.902.564 1.957.252 2.927-.397 1.196-1.247 1.797-2.309 2.35l.012 3.489c.759.231 1.498.495 2.187.894 1.584.919 2.669 2.467 3.123 4.23a7.205 7.205 0 0 1-.76 5.459c-.887 1.493-2.3 2.597-3.993 3.019-2.211.552-4.086-.047-5.986-1.176a156.6 156.6 0 0 0-2.489 2.725c.366.864.487 1.77.244 2.687-.237.897-.866 1.666-1.67 2.121-.901.51-1.928.603-2.916.321-.981-.281-1.805-.889-2.284-1.801-.472-.897-.511-1.949-.206-2.907.348-1.089 1.057-1.759 2.053-2.257 1.072-.419 1.958-.281 3.005.096.872-.917 1.693-1.88 2.574-2.789-.968-1.898-1.281-3.515-.778-5.606-1.096-.511-2.153-1.108-3.249-1.62-.586.61-1.301 1.028-2.142 1.169-1.003.169-2.061-.105-2.885-.694a3.671 3.671 0 0 1-1.486-2.493c-.135-.97.12-2.038.741-2.803.64-.789 1.634-1.265 2.637-1.37a3.727 3.727 0 0 1 2.734.836c.976.818 1.258 1.834 1.376 3.045 1.039.637 2.229 1.129 3.312 1.698 1.409-1.665 2.439-2.191 4.492-2.824l.002-3.463a4.767 4.767 0 0 1-1.055-.561 3.715 3.715 0 0 1-1.473-2.501 3.76 3.76 0 0 1 .779-2.782C14.446.669 15.353.282 16.404.143zm4.528 17.225a4.35 4.35 0 1 0-8.663.76 4.35 4.35 0 0 0 8.662-.76zM102.107 11.958c.708.001 1.415.011 2.124.029l-.004 3.742c.546-.424 1.14-.739 1.831-.843.933-.141 1.884.1 2.637.669.908.687 1.384 1.844 1.523 2.949.175 1.401-.154 2.749-1.019 3.866-.574.554-1.263.941-2.057 1.072-1.165.191-2.088-.216-2.998-.894l-.004.817-2.032-.003-.001-11.404zm3.64 4.904c-.632.21-1.07.51-1.378 1.118-.342.675-.365 1.508-.099 2.211.204.538.585 1.004 1.118 1.244.385.175.749.18 1.164.155.66-.249 1.103-.569 1.402-1.229.311-.689.307-1.52.011-2.214-.228-.533-.632-.963-1.177-1.174-.341-.131-.682-.149-1.042-.111zM41.272 11.936c1.246 3.84 2.84 7.575 4.055 11.425l-2.296.003c-.269-.822-.529-1.752-.939-2.512-.268-.115-.586-.076-.873-.073a122.7 122.7 0 0 1-3.323-.012c-.348.849-.628 1.722-.903 2.596l-2.339-.002c1.221-3.833 2.677-7.617 3.996-11.42.872.019 1.749-.001 2.622-.005zm-1.308 2.839c-.483 1.374-.934 2.768-1.464 4.125l1.681-.001 1.306-.015c-.184-.518-1.25-3.88-1.524-4.109zM89.685 11.961l2.196.013c-.03 2.647-.007 5.298-.007 7.945-.001 1.093.11 2.287-.013 3.365l-.121.083h-2.058l-.004-4.889c-1.645-.046-3.303-.005-4.949-.003l.001 4.894-2.209-.004.009-11.401 2.2.005.002 4.662h4.957l-.003-4.67zM93.202 15.121c.729.021 1.46.013 2.188.017-.009 1.165-.193 4.384.089 5.347.111.38.333.728.693.913.541.278 1.09.117 1.628-.072.238-.266.443-.515.561-.859.386-1.123.18-4.006.174-5.343.694.019 1.391.004 2.085 0-.016.8-.003 1.603-.004 2.404l.011 5.834c-.683.01-1.365.005-2.047-.015l-.063-.074a1.94 1.94 0 0 0-.018-.487c-.639.277-1.209.697-1.936.712-.843.017-1.758-.245-2.363-.852-.459-.459-.739-1.076-.883-1.703-.31-1.348-.127-4.332-.113-5.824zM63.686 14.891c1.089-.085 2.224-.008 3.104.725.617.514.816 1.13.883 1.897l-1.968-.002c-.113-.21-.226-.454-.404-.619a1.505 1.505 0 0 0-1.078-.377c-.298.016-.679.135-.865.387-.113.154-.175.311-.132.503.224 1.009 2.79.884 3.607 1.419.52.341.919.951 1.034 1.56a2.289 2.289 0 0 1-.409 1.775c-.627.865-1.593 1.175-2.599 1.329-.931.056-2.011-.194-2.756-.761-.699-.532-.95-1.185-1.045-2.025.663.001 1.326-.005 1.989-.018.039.125.082.245.145.361.289.533.865.651 1.4.808.353-.081.831-.172 1.082-.457.151-.172.204-.471.14-.691-.245-.843-2.703-.943-3.556-1.468-.505-.311-.876-.764-1.011-1.349-.121-.53-.075-1.125.223-1.59.538-.84 1.28-1.185 2.216-1.408zM76.93 14.889c.62-.05 1.227-.047 1.831.117.697.189 1.438.578 1.79 1.239.169.317.3.886.186 1.237-.565.122-1.255.04-1.835.033-.085-.287-.158-.509-.391-.707a1.415 1.415 0 0 0-1.062-.322c-.3.031-.685.178-.852.447-.1.16-.141.325-.078.509.362 1.068 2.535.814 3.38 1.297.538.308.988.848 1.141 1.454.164.65.056 1.372-.319 1.931-.56.835-1.449 1.149-2.388 1.331-.922.114-1.989-.082-2.759-.613-.791-.545-1.028-1.229-1.206-2.123l1.973-.015c.12.302.229.537.485.746.341.279.745.406 1.184.347.341-.045.676-.202.88-.487.133-.187.2-.414.136-.642-.247-.878-2.426-.823-3.29-1.288-.584-.315-1.046-.838-1.231-1.481a2.017 2.017 0 0 1 .196-1.599c.477-.81 1.353-1.206 2.231-1.409zM52.641 12.857c.655.023 1.315.009 1.97.011-.007.74.004 1.48.032 2.219l1.944.001-.004 1.694-1.851-.001c.001 1.066-.243 3.817.246 4.641.382.301 1.145.189 1.609.183l-.007 1.404c.004.145.004.218-.07.344-.259.124-.524.152-.81.154-.752.007-1.791-.129-2.331-.693-1.086-1.131-.739-4.457-.734-6.035l-1.254.002.004-1.698 1.249.008.007-2.236zM69.54 12.848l1.934.011c-.015.741.016 1.485.03 2.226l1.976-.004-.003 1.702-1.859-.001c.023 1.015-.226 3.85.234 4.617.494.295 1.113.216 1.669.215-.007.489.003.979.005 1.469l-.023.186c-.191.202-.486.194-.747.2-.794.019-1.891-.107-2.467-.71-1.075-1.126-.74-4.405-.731-5.978l-1.323.001c-.017-.564-.01-1.129-.015-1.692l1.318.007.004-2.249zM27.821 11.582c.102-.005.2-.007.302.008.316.046.628.198.802.476.185.294.21.687.235 1.028.125 1.688.032 3.444.032 5.138 0 1.384.153 3.26-.104 4.592-.081.419-.359.619-.691.846-.127.015-.259.033-.387.026a1.043 1.043 0 0 1-.74-.361c-.183-.216-.177-.648-.193-.919-.116-1.942-.018-3.946-.016-5.893.001-1.107-.151-3.225.082-4.213.083-.353.402-.539.68-.727zM50.243 15.058l.278-.003c.329.368.166 1.535.155 2.018-.696-.007-1.354-.035-1.899.471-1.023.949-.678 4.425-.688 5.82-.548-.005-1.617.195-2.035-.154l-.022-.346c.01-2.586-.055-5.169-.038-7.754.664.021 1.33.007 1.994.003l-.023 1.142c.123-.177.246-.366.389-.527.503-.568 1.186-.619 1.891-.669zM57.795 15.092l2.086.001.005 8.275-2.11-.003.019-8.273zM24.906 14.293c.343.063.645.192.845.489.308.459.316 4.955.162 5.596-.084.351-.388.522-.675.691-.33-.02-.763-.049-.983-.335-.327-.425-.3-5.203-.114-5.802.108-.348.466-.495.765-.639zM58.701 11.683a1.153 1.153 0 1 1 .27 2.29 1.153 1.153 0 0 1-.27-2.29z" />
    </symbol>
    <symbol id="icon-Company-Logo" viewBox="0 0 73 32">
      <path
        d="M13.471 6.854c.258-.03.558.028.807.104a2.13 2.13 0 0 1 1.293 1.064c.282.538.336 1.167.15 1.745-.236.713-.744 1.071-1.377 1.401l.007 2.08c.453.138.893.295 1.304.533.945.548 1.591 1.471 1.862 2.522a4.297 4.297 0 0 1-.453 3.254c-.529.89-1.371 1.548-2.38 1.8-1.318.329-2.436-.028-3.569-.701a95.159 95.159 0 0 0-1.484 1.624c.218.515.29 1.055.145 1.602a2.09 2.09 0 0 1-.996 1.264 2.233 2.233 0 0 1-1.739.191c-.585-.167-1.076-.53-1.362-1.074-.281-.535-.305-1.162-.123-1.733.207-.649.63-1.049 1.224-1.346.639-.25 1.168-.168 1.791.057.52-.547 1.009-1.121 1.534-1.663-.577-1.131-.764-2.095-.464-3.342-.653-.305-1.283-.66-1.937-.966a2.28 2.28 0 0 1-1.277.697 2.333 2.333 0 0 1-1.72-.413 2.19 2.19 0 0 1-.886-1.486c-.081-.578.072-1.215.442-1.671.382-.47.974-.754 1.572-.817a2.223 2.223 0 0 1 1.63.498c.582.487.75 1.093.82 1.816.619.38 1.329.673 1.974 1.012.84-.993 1.454-1.306 2.678-1.683l.001-2.064a2.835 2.835 0 0 1-.629-.335 2.21 2.21 0 0 1-.878-1.491 2.242 2.242 0 0 1 .465-1.659c.404-.507.945-.738 1.572-.821zm2.7 10.269a2.593 2.593 0 1 0-5.163.455 2.593 2.593 0 0 0 5.163-.456zm48.393-3.225c.422.001.844.007 1.266.017l-.002 2.231c.325-.253.679-.441 1.091-.502a2.086 2.086 0 0 1 1.572.399c.542.409.826 1.099.908 1.758.105.835-.092 1.639-.607 2.305-.342.33-.753.561-1.226.639-.695.114-1.245-.129-1.786-.533l-.002.487-1.212-.002-.001-6.799zm2.17 2.923c-.376.125-.638.304-.822.666a1.66 1.66 0 0 0-.058 1.318c.121.321.349.599.666.742.23.104.447.107.695.093.393-.149.657-.339.835-.733.186-.411.183-.906.007-1.32a1.263 1.263 0 0 0-.702-.7 1.299 1.299 0 0 0-.621-.066zm-38.437-2.936c.743 2.289 1.693 4.516 2.418 6.811l-1.369.002c-.16-.49-.315-1.045-.56-1.498-.16-.068-.349-.045-.52-.043-.66.007-1.321.004-1.981-.007a19.644 19.644 0 0 0-.538 1.547l-1.394-.001c.728-2.285 1.596-4.541 2.382-6.808.52.011 1.043-.001 1.563-.003zm-.78 1.692c-.288.819-.557 1.65-.873 2.459l1.002-.001.779-.009c-.11-.309-.745-2.313-.909-2.449zM57.159 13.9l1.309.008c-.018 1.578-.004 3.159-.004 4.737 0 .651.066 1.363-.007 2.006l-.072.049h-1.227l-.003-2.914c-.981-.027-1.969-.003-2.951-.002v2.917l-1.317-.003.005-6.796 1.312.003.001 2.779h2.955l-.002-2.784zm2.096 1.884c.434.012.87.008 1.304.01-.005.695-.115 2.613.053 3.188.066.227.199.434.413.544.322.166.65.07.971-.043.142-.159.264-.307.334-.512.23-.67.107-2.388.103-3.185.414.011.829.002 1.243 0-.01.477-.002.956-.002 1.433l.006 3.478c-.407.006-.814.003-1.22-.009l-.038-.044a1.225 1.225 0 0 0-.01-.29c-.382.165-.721.416-1.154.424-.503.01-1.048-.146-1.409-.508-.274-.274-.441-.642-.526-1.015-.185-.803-.076-2.583-.068-3.472zm-17.596-.137c.649-.051 1.326-.005 1.85.432.368.306.487.674.526 1.131l-1.173-.001c-.068-.126-.135-.271-.241-.369a.9.9 0 0 0-.643-.225c-.178.01-.405.081-.515.231-.067.091-.104.186-.078.3.133.602 1.663.527 2.15.846.31.203.548.567.617.93.069.371-.02.755-.244 1.058-.374.515-.95.701-1.549.793-.555.034-1.199-.115-1.643-.454-.416-.317-.566-.706-.623-1.207.395.001.791-.003 1.186-.011.023.074.049.146.086.215.172.318.516.388.834.482.21-.048.495-.102.645-.272a.474.474 0 0 0 .084-.412c-.146-.503-1.612-.562-2.12-.875-.301-.186-.522-.456-.603-.804-.072-.316-.045-.671.133-.948.321-.501.763-.707 1.321-.84zm7.896-.002c.369-.03.731-.028 1.092.07.416.113.857.345 1.067.738.101.189.179.528.111.738-.337.073-.748.024-1.094.02-.051-.171-.094-.303-.233-.422a.845.845 0 0 0-.633-.192c-.179.018-.408.106-.508.266a.338.338 0 0 0-.047.303c.216.637 1.511.485 2.015.773.321.183.589.506.68.867.098.387.033.818-.19 1.151-.334.498-.864.685-1.423.793-.549.068-1.185-.049-1.645-.366-.471-.325-.613-.733-.719-1.266l1.176-.009c.071.18.136.32.289.445a.9.9 0 0 0 .706.207.76.76 0 0 0 .525-.29.45.45 0 0 0 .081-.383c-.147-.523-1.446-.491-1.961-.768a1.486 1.486 0 0 1-.734-.883 1.2 1.2 0 0 1 .117-.953c.285-.483.806-.719 1.33-.84zm-14.481-1.211c.39.013.784.005 1.175.007-.004.441.002.882.019 1.323l1.159.001-.003 1.01H36.32c0 .636-.145 2.276.147 2.767.228.18.683.112.959.109l-.004.837c.003.086.002.13-.042.205a1.09 1.09 0 0 1-.483.092c-.448.004-1.067-.077-1.39-.413-.647-.674-.441-2.657-.437-3.598l-.748.001.002-1.012.745.005.004-1.333zm10.075-.005 1.153.007c-.009.442.01.886.018 1.327l1.178-.002-.002 1.015-1.108-.001c.013.605-.135 2.295.139 2.753.295.176.664.129.995.128-.004.291.002.584.003.876l-.014.111c-.114.121-.29.115-.445.119-.474.011-1.128-.064-1.471-.423-.641-.671-.441-2.626-.436-3.564h-.789c-.01-.336-.006-.673-.009-1.009l.786.004.002-1.341zm-24.871-.755a.903.903 0 0 1 .18.005.665.665 0 0 1 .478.284c.11.176.125.409.14.613.075 1.006.019 2.053.019 3.063 0 .825.091 1.943-.062 2.737-.048.25-.214.369-.412.504-.076.009-.155.02-.231.015a.623.623 0 0 1-.441-.215c-.109-.128-.106-.386-.115-.548-.069-1.158-.011-2.352-.01-3.513.001-.66-.09-1.923.049-2.512.05-.211.239-.321.405-.433zm13.367 2.072.166-.002c.196.22.099.915.093 1.203-.415-.004-.807-.021-1.132.281-.61.566-.404 2.638-.41 3.47-.327-.003-.964.116-1.213-.091l-.013-.206c.006-1.541-.033-3.082-.023-4.623.396.012.793.004 1.189.002l-.014.681c.073-.105.146-.218.232-.314.3-.338.707-.369 1.127-.399zm4.502.02 1.243.001.003 4.933-1.258-.002.011-4.932zM18.54 15.29c.204.038.385.114.504.292.183.274.188 2.954.096 3.336-.05.209-.231.311-.403.412-.197-.012-.455-.029-.586-.2-.195-.253-.179-3.102-.068-3.459.065-.207.278-.295.456-.381zm20.147-1.556a.689.689 0 1 1 .16 1.368.689.689 0 0 1-.16-1.368z" />
    </symbol>
    <symbol id="icon-down-arrow-alt" viewBox="0 0 31 32">
      <path
        d="m23.945 17.409-1.81-1.81-5.495 5.495V8.824h-2.56v12.27l-5.495-5.495-1.81 1.81 8.585 8.585 8.585-8.585z" />
    </symbol>
    <symbol id="icon-Facebook" viewBox="0 0 31 32">
      <path
        d="M28.618 16.699c0-7.228-5.824-13.088-13.008-13.088S2.602 9.471 2.602 16.699c0 6.532 4.757 11.947 10.976 12.929v-9.146h-3.303v-3.783h3.303v-2.883c0-3.28 1.942-5.092 4.913-5.092 1.423 0 2.912.256 2.912.256v3.221h-1.64c-1.616 0-2.12 1.009-2.12 2.044V16.7h3.608l-.577 3.783h-3.031v9.146c6.219-.982 10.976-6.396 10.976-12.929z" />
    </symbol>
    <symbol id="icon-Icon-menu" viewBox="0 0 32 32">
      <path d="M10.667 12h10.667v1.333H10.667V12zm2.666 3.333h8v1.333h-8v-1.333zm3.334 3.334h4.667V20h-4.667v-1.333z" />
    </symbol>
    <symbol id="icon-Instagram" viewBox="0 0 31 32">
      <path
        d="M15.608 6.705c3.128 0 3.498.014 4.728.069 1.143.05 1.76.242 2.172.402a3.63 3.63 0 0 1 1.344.874c.412.412.663.8.878 1.345.16.412.352 1.033.402 2.172.055 1.235.069 1.605.069 4.728s-.014 3.498-.069 4.728c-.05 1.143-.242 1.76-.402 2.172a3.617 3.617 0 0 1-.874 1.344c-.412.412-.8.663-1.344.878-.412.16-1.034.352-2.172.402-1.235.055-1.605.069-4.728.069s-3.498-.014-4.728-.069c-1.143-.05-1.76-.242-2.172-.402a3.629 3.629 0 0 1-1.345-.874 3.667 3.667 0 0 1-.878-1.344c-.16-.412-.352-1.034-.402-2.172-.055-1.235-.069-1.605-.069-4.728s.014-3.498.069-4.728c.05-1.143.242-1.76.402-2.172.211-.544.467-.937.874-1.345.412-.412.8-.663 1.345-.878.412-.16 1.033-.352 2.172-.402 1.23-.055 1.601-.069 4.728-.069h.001zm0-2.108c-3.178 0-3.575.014-4.824.069-1.244.055-2.099.256-2.839.544a5.696 5.696 0 0 0-2.076 1.353 5.728 5.728 0 0 0-1.353 2.071c-.288.746-.489 1.596-.544 2.839-.055 1.253-.069 1.651-.069 4.829s.014 3.575.069 4.824c.055 1.244.256 2.099.544 2.839a5.709 5.709 0 0 0 1.353 2.076A5.721 5.721 0 0 0 7.94 27.39c.746.288 1.596.489 2.839.544 1.248.055 1.646.069 4.824.069s3.576-.014 4.824-.069c1.244-.055 2.099-.256 2.839-.544.768-.297 1.422-.699 2.071-1.349s1.052-1.303 1.349-2.071c.288-.745.489-1.596.544-2.839.055-1.248.069-1.646.069-4.824s-.014-3.575-.069-4.824c-.055-1.244-.256-2.099-.544-2.839a5.483 5.483 0 0 0-1.34-2.081 5.721 5.721 0 0 0-2.071-1.349c-.746-.288-1.596-.489-2.839-.544-1.253-.059-1.651-.073-4.829-.073l-.001.001z" />
      <path
        d="M15.608 10.289a6.014 6.014 0 1 0 6.013 6.013 6.014 6.014 0 0 0-6.013-6.013zm0 9.914a3.9 3.9 0 1 1 0-7.8 3.9 3.9 0 0 1 0 7.8zm7.653-10.151a1.404 1.404 0 1 1-2.808 0 1.404 1.404 0 0 1 2.808 0z" />
    </symbol>
    <symbol id="icon-Logo-hub-fotter" viewBox="0 0 81 32">
      <path
        d="M15.228 7.528c.292-.034.631.032.912.117a2.403 2.403 0 0 1 1.462 1.202c.319.608.38 1.319.17 1.973-.267.806-.841 1.212-1.557 1.584l.008 2.351c.512.156 1.01.333 1.474.602 1.068.619 1.798 1.663 2.105 2.85a4.852 4.852 0 0 1-.512 3.679c-.598 1.006-1.55 1.749-2.691 2.034-1.49.372-2.754-.031-4.035-.792a104.21 104.21 0 0 0-1.677 1.836c.247.582.329 1.193.165 1.812a2.365 2.365 0 0 1-1.126 1.429 2.52 2.52 0 0 1-1.965.215c-.661-.189-1.216-.598-1.539-1.213-.318-.605-.345-1.314-.139-1.959.234-.734.712-1.186 1.383-1.521.723-.283 1.32-.19 2.026.065.587-.618 1.14-1.268 1.734-1.881-.652-1.279-.864-2.369-.524-3.778-.738-.345-1.45-.746-2.189-1.091-.395.411-.878.693-1.444.788a2.641 2.641 0 0 1-1.944-.467 2.478 2.478 0 0 1-1.001-1.681c-.091-.653.081-1.373.499-1.889.431-.532 1.101-.853 1.777-.924a2.51 2.51 0 0 1 1.842.563c.658.551.848 1.237.928 2.053.7.429 1.502.76 2.232 1.143.949-1.122 1.643-1.476 3.027-1.903l.001-2.334a3.233 3.233 0 0 1-.711-.378 2.5 2.5 0 0 1-.993-1.685 2.528 2.528 0 0 1 .526-1.874c.457-.573 1.068-.834 1.777-.928zm3.051 11.608a2.932 2.932 0 1 0-5.84.514 2.932 2.932 0 0 0 5.84-.514zm54.707-3.645c.477.001.954.007 1.432.019l-.003 2.522c.367-.286.768-.499 1.233-.569a2.36 2.36 0 0 1 1.777.452c.612.463.934 1.242 1.026 1.986.118.945-.104 1.853-.687 2.606-.387.373-.851.634-1.386.722-.785.129-1.408-.146-2.02-.603l-.003.551-1.37-.003-.001-7.685zm2.453 3.305c-.425.141-.721.343-.929.753a1.886 1.886 0 0 0-.066 1.491c.137.363.394.677.753.838.26.118.505.121.785.105.444-.168.743-.383.944-.828a1.89 1.89 0 0 0 .008-1.492 1.426 1.426 0 0 0-.793-.791 1.47 1.47 0 0 0-.702-.075zm-43.452-3.32c.84 2.588 1.914 5.105 2.733 7.7l-1.548.001c-.181-.554-.356-1.181-.633-1.693-.181-.077-.395-.051-.588-.049-.746.007-1.493.005-2.239-.008-.234.572-.423 1.16-.609 1.749l-1.576-.001c.823-2.583 1.804-5.133 2.693-7.696.588.013 1.179-.001 1.767-.003zm-.882 1.913c-.326.926-.63 1.865-.986 2.78l1.133-.001.88-.01c-.124-.348-.842-2.615-1.027-2.77zm33.509-1.896 1.48.009c-.02 1.784-.004 3.57-.005 5.354-.001.736.074 1.541-.008 2.268L66 23.18h-1.387l-.003-3.294c-1.109-.031-2.226-.003-3.335-.002l.001 3.298-1.489-.003.006-7.683 1.483.003.001 3.141h3.34l-.002-3.147zm2.37 2.129c.491.014.984.009 1.475.012-.006.785-.13 2.954.06 3.603.075.256.225.491.467.615.364.187.735.079 1.097-.048.16-.179.298-.347.378-.579.259-.757.121-2.7.117-3.601.468.013.937.003 1.405 0-.011.539-.002 1.081-.003 1.62l.007 3.931c-.46.007-.92.003-1.379-.01l-.042-.05a1.334 1.334 0 0 0-.012-.328c-.431.187-.815.47-1.305.48-.568.011-1.185-.165-1.593-.574-.309-.309-.498-.725-.595-1.148-.209-.908-.086-2.92-.076-3.925zm-19.891-.155c.734-.057 1.499-.006 2.092.489.416.346.55.762.595 1.278l-1.326-.001c-.076-.142-.153-.306-.272-.417a1.017 1.017 0 0 0-.726-.254c-.201.011-.458.091-.583.261-.076.103-.118.21-.089.339.151.68 1.88.596 2.431.956.35.23.619.641.697 1.051a1.54 1.54 0 0 1-.275 1.196c-.423.583-1.074.792-1.751.896-.627.038-1.355-.131-1.857-.513-.471-.359-.64-.798-.704-1.365.447.001.894-.003 1.341-.012.026.084.055.165.098.243.195.359.583.439.943.545.238-.055.56-.116.729-.308a.537.537 0 0 0 .095-.465c-.165-.568-1.822-.635-2.397-.989-.34-.21-.591-.515-.681-.909-.082-.357-.051-.758.15-1.071.362-.566.863-.799 1.493-.949zm8.925-.001c.418-.034.827-.032 1.234.079.47.127.969.39 1.206.835.114.213.202.597.125.834-.381.082-.846.027-1.237.022-.058-.194-.106-.343-.264-.477a.958.958 0 0 0-.716-.217c-.202.021-.462.12-.574.301-.067.108-.095.219-.053.343.244.72 1.709.549 2.278.874.362.207.666.572.769.98a1.64 1.64 0 0 1-.215 1.301c-.377.562-.977.774-1.609.897-.621.077-1.34-.055-1.859-.413-.533-.367-.693-.828-.813-1.431l1.33-.01c.081.203.154.362.327.503.23.188.502.273.798.234.23-.031.456-.136.593-.328a.508.508 0 0 0 .092-.432c-.166-.591-1.635-.555-2.217-.868a1.679 1.679 0 0 1-.83-.998 1.358 1.358 0 0 1 .132-1.078c.322-.546.912-.813 1.503-.949zm-16.369-1.369c.441.015.886.006 1.328.008-.005.498.002.997.022 1.495l1.31.001-.003 1.142h-1.248c.001.719-.164 2.572.166 3.128.258.203.772.127 1.085.124l-.004.946c.003.098.002.147-.047.232a1.24 1.24 0 0 1-.546.104c-.507.004-1.207-.087-1.571-.467-.732-.762-.498-3.004-.495-4.067l-.845.001.003-1.144.842.006.004-1.507zm11.388-.006 1.303.007c-.01.499.011 1.001.02 1.5l1.331-.003-.002 1.147-1.253-.001c.015.684-.152 2.595.158 3.112.333.199.75.146 1.124.145-.004.33.002.66.003.99l-.016.125c-.129.137-.328.131-.503.135-.535.013-1.275-.072-1.663-.478-.725-.759-.499-2.969-.493-4.029h-.891c-.011-.38-.007-.761-.01-1.14l.888.005.002-1.516zm-28.115-.854c.069-.003.135-.004.203.005.213.031.423.134.54.321.124.198.142.463.159.693.084 1.138.022 2.321.021 3.463 0 .932.103 2.197-.07 3.094-.054.282-.242.417-.466.57-.085.01-.175.022-.261.017a.71.71 0 0 1-.499-.243c-.123-.145-.119-.437-.13-.619-.078-1.309-.012-2.659-.011-3.972.001-.746-.102-2.174.055-2.839.056-.238.271-.363.458-.49zm15.112 2.343.187-.002c.222.248.112 1.034.105 1.36-.469-.005-.913-.024-1.28.317-.689.639-.457 2.982-.464 3.922-.37-.003-1.089.132-1.372-.103l-.015-.233c.007-1.743-.037-3.484-.026-5.226.447.014.896.004 1.344.002l-.016.769c.083-.119.165-.247.262-.355.339-.383.799-.417 1.274-.451zm5.089.023 1.406.001.003 5.577-1.422-.002.013-5.575zm-22.164-.538c.231.043.435.129.57.33.207.309.213 3.339.109 3.771-.057.236-.261.352-.455.465-.222-.013-.514-.033-.662-.226-.221-.286-.202-3.506-.077-3.91.073-.235.314-.334.516-.431zm22.774-1.76a.777.777 0 1 1 .182 1.544.777.777 0 0 1-.182-1.544z" />
    </symbol>
    <symbol id="icon-logo-about" viewBox="0 0 32 32">
      <path
        d="M17.501 3.14c.384-.041.83.039 1.2.144.838.238 1.518.747 1.922 1.474a2.94 2.94 0 0 1 .224 2.417c-.352.988-1.105 1.484-2.047 1.94l.011 2.881c.673.191 1.328.407 1.939.737a5.666 5.666 0 0 1 2.768 3.493 5.598 5.598 0 0 1-.673 4.507 5.72 5.72 0 0 1-3.539 2.493c-1.959.456-3.621-.038-5.305-.971-.744.742-1.48 1.492-2.206 2.25.325.713.432 1.461.217 2.219-.21.741-.768 1.376-1.48 1.751-.799.421-1.709.498-2.584.264-.869-.232-1.6-.733-2.024-1.487-.418-.741-.453-1.61-.182-2.401.308-.899.936-1.453 1.819-1.864.95-.346 1.736-.232 2.664.079.772-.757 1.5-1.553 2.28-2.304-.858-1.567-1.135-2.902-.689-4.629-.971-.422-1.907-.914-2.879-1.337a3.458 3.458 0 0 1-1.899.965 3.669 3.669 0 0 1-2.556-.573c-.724-.489-1.2-1.233-1.317-2.059-.12-.8.106-1.683.656-2.314.567-.652 1.448-1.045 2.337-1.131a3.468 3.468 0 0 1 2.422.69c.865.675 1.115 1.514 1.22 2.515.921.526 1.975.932 2.935 1.401 1.248-1.375 2.16-1.809 3.98-2.332l.002-2.859a4.29 4.29 0 0 1-.935-.464c-.718-.495-1.189-1.24-1.306-2.065a2.95 2.95 0 0 1 .691-2.297c.601-.702 1.404-1.022 2.336-1.137zm4.011 14.222c-.185-1.967-2.04-3.425-4.152-3.265-2.131.162-3.713 1.908-3.526 3.892s2.072 3.448 4.2 3.262c2.11-.185 3.663-1.922 3.478-3.889zm6.105-4.777c.09-.004.178-.005.267.007.28.038.556.164.71.393.164.243.186.567.209.849.111 1.394.029 2.844.028 4.243 0 1.142.136 2.691-.092 3.791-.072.346-.318.511-.612.698-.112.013-.23.027-.343.021a.952.952 0 0 1-.656-.298c-.162-.178-.157-.535-.171-.759-.103-1.603-.016-3.258-.014-4.866.001-.914-.134-2.663.072-3.479.074-.292.356-.445.603-.6zm-2.581 2.24c.303.052.572.158.749.404.273.379.28 4.091.143 4.621-.075.29-.344.431-.599.57-.292-.016-.676-.04-.871-.276-.29-.351-.266-4.296-.101-4.791.096-.287.413-.409.678-.528z" />
    </symbol>
    <symbol id="icon-Logo-footer" viewBox="0 0 73 32">
      <path
        d="M18.932 9.969c.363-.042.784.039 1.134.146a2.99 2.99 0 0 1 1.818 1.495c.397.756.473 1.64.211 2.453-.332 1.002-1.046 1.506-1.936 1.97l.01 2.923c.636.194 1.255.414 1.833.748 1.328.77 2.236 2.067 2.617 3.544a6.04 6.04 0 0 1-.636 4.574c-.743 1.251-1.927 2.175-3.345 2.529-1.853.463-3.424-.038-5.016-.985a128.66 128.66 0 0 0-2.085 2.282c.307.724.409 1.483.205 2.253-.199.752-.726 1.396-1.4 1.777-.755.427-1.616.505-2.443.268-.822-.235-1.512-.744-1.914-1.508-.395-.752-.429-1.633-.172-2.436.291-.912.885-1.474 1.72-1.891.899-.351 1.641-.236 2.519.08.73-.768 1.418-1.576 2.155-2.338-.811-1.59-1.074-2.945-.652-4.697-.918-.428-1.803-.927-2.721-1.356-.491.511-1.091.861-1.796.98-.84.141-1.726-.088-2.416-.581a3.081 3.081 0 0 1-1.245-2.09c-.113-.812.101-1.707.621-2.348.536-.661 1.369-1.061 2.209-1.149.826-.08 1.65.172 2.29.7.818.685 1.055 1.537 1.154 2.552.871.534 1.867.945 2.774 1.421 1.18-1.395 2.043-1.835 3.764-2.366l.001-2.901a3.98 3.98 0 0 1-.883-.47 3.11 3.11 0 0 1-1.235-2.095 3.142 3.142 0 0 1 .654-2.33c.568-.713 1.328-1.037 2.209-1.154zm3.794 14.432a3.643 3.643 0 1 0-7.257.637 3.643 3.643 0 0 0 7.256-.637zm17.042-4.551c1.044 3.217 2.38 6.347 3.398 9.573l-1.924.002c-.225-.689-.443-1.468-.787-2.105-.225-.096-.491-.064-.731-.061-.928.009-1.856.007-2.784-.009-.291.711-.526 1.442-.757 2.174l-1.959-.002c1.023-3.212 2.243-6.382 3.348-9.568.731.016 1.466-.001 2.197-.004zm-1.097 2.379c-.405 1.152-.783 2.319-1.226 3.456l1.409-.001 1.095-.012c-.154-.433-1.047-3.251-1.277-3.443zm19.877.097c.912-.071 1.863-.007 2.601.608.517.43.684.947.74 1.589l-1.649-.002c-.095-.176-.19-.381-.339-.519a1.266 1.266 0 0 0-.903-.316c-.25.014-.569.113-.724.325-.094.129-.146.261-.11.421.187.846 2.337.741 3.022 1.189.435.285.77.797.867 1.307a1.918 1.918 0 0 1-.342 1.487c-.525.724-1.335.985-2.177 1.114-.78.047-1.684-.162-2.309-.637-.585-.446-.796-.993-.876-1.697a77.26 77.26 0 0 0 1.667-.015c.033.105.069.206.121.303.242.446.725.546 1.173.677.296-.068.696-.144.906-.383a.667.667 0 0 0 .118-.579c-.205-.707-2.265-.79-2.98-1.23-.423-.261-.734-.64-.847-1.13-.102-.444-.063-.943.187-1.332.451-.704 1.073-.993 1.857-1.18zm11.095-.002c.519-.042 1.028-.039 1.534.098.584.158 1.204.484 1.5 1.038.142.265.251.742.156 1.037-.473.102-1.051.033-1.537.028-.072-.241-.132-.426-.328-.593a1.187 1.187 0 0 0-.89-.27c-.251.026-.574.149-.714.374-.084.134-.118.272-.065.426.304.895 2.124.682 2.832 1.086.451.258.828.711.956 1.218a2.042 2.042 0 0 1-.267 1.618c-.469.699-1.214.962-2.001 1.115-.772.096-1.666-.069-2.311-.514-.663-.457-.862-1.03-1.01-1.779l1.653-.012c.1.253.192.45.406.625.285.234.624.34.992.291.285-.038.566-.169.737-.408a.633.633 0 0 0 .114-.538c-.207-.735-2.032-.689-2.757-1.08-.489-.264-.877-.702-1.032-1.241a1.687 1.687 0 0 1 .164-1.34c.4-.679 1.133-1.01 1.869-1.18zm-20.35-1.702c.549.019 1.102.007 1.651.01-.006.62.003 1.24.027 1.859l1.629.001-.004 1.42-1.551-.001c.001.893-.204 3.198.206 3.888.32.252.959.158 1.348.154l-.006 1.176c.004.121.003.183-.059.288-.217.104-.439.127-.678.129-.63.005-1.5-.108-1.953-.581-.91-.947-.619-3.735-.615-5.057l-1.051.002.003-1.423 1.047.007.005-1.873zm14.159-.008 1.62.009c-.012.621.013 1.244.025 1.865l1.655-.003-.002 1.426-1.558-.001c.019.851-.189 3.226.196 3.869.414.247.933.181 1.398.18-.006.41.002.82.004 1.231l-.02.155c-.16.17-.407.162-.626.168-.665.016-1.585-.089-2.067-.595-.901-.943-.62-3.691-.612-5.009l-1.108.001c-.014-.472-.009-.946-.012-1.418l1.104.006.003-1.884zm-34.955-1.061c.085-.004.168-.005.253.007.265.038.526.166.672.399.155.247.176.575.197.861.105 1.414.027 2.886.027 4.305 0 1.159.128 2.731-.087 3.847-.068.351-.3.519-.579.709-.106.013-.217.027-.324.021a.874.874 0 0 1-.62-.302c-.153-.181-.148-.543-.162-.77-.097-1.627-.015-3.306-.014-4.938.001-.927-.127-2.702.068-3.53.07-.296.337-.451.57-.609zm18.788 2.913.233-.003c.276.308.139 1.286.13 1.691-.583-.006-1.135-.029-1.591.394-.857.795-.568 3.708-.577 4.876-.459-.004-1.354.164-1.705-.129l-.018-.29c.008-2.166-.046-4.331-.032-6.497.556.017 1.114.005 1.671.003l-.02.957c.103-.148.206-.307.325-.442.422-.476.994-.519 1.584-.561zm6.327.029 1.748.001.004 6.933-1.768-.003.016-6.931zm-27.555-.67c.287.053.541.161.708.41.258.384.265 4.151.136 4.689-.071.294-.325.437-.566.579-.276-.017-.639-.041-.823-.28-.274-.356-.252-4.359-.095-4.861.091-.292.391-.415.641-.536zm28.313-2.187a.967.967 0 1 1 .225 1.92.967.967 0 0 1-.225-1.92z" />
    </symbol>
    <symbol id="icon-right-arrow" viewBox="0 0 31 32">
      <path
        d="M7.086 28.654a1.288 1.288 0 0 0 1.323-.081l16.64-11.52a1.283 1.283 0 0 0 .551-1.052 1.279 1.279 0 0 0-.551-1.052L8.409 3.429a1.279 1.279 0 0 0-2.008 1.052v23.04a1.28 1.28 0 0 0 .686 1.134zM8.96 6.924 22.071 16 8.96 25.076V6.923z" />
    </symbol>
    <symbol id="icon-Youtube" viewBox="0 0 31 32">
      <path
        d="M28.089 10.063a3.258 3.258 0 0 0-2.292-2.297c-2.037-.559-10.187-.568-10.187-.568s-8.148-.009-10.187.526a3.326 3.326 0 0 0-2.297 2.313c-.537 2.037-.542 6.262-.542 6.262s-.005 4.246.528 6.262a3.26 3.26 0 0 0 2.293 2.296c2.058.559 10.185.568 10.185.568s8.15.009 10.187-.524a3.269 3.269 0 0 0 2.299-2.293c.539-2.036.542-6.259.542-6.259s.026-4.247-.529-6.284zM13.003 20.212l.006-7.805 6.773 3.909-6.78 3.896z" />
    </symbol>
    <symbol id="explore-artists" viewBox="0 0 24 32">
      <path fill="#fff"
        d="M.858 31.818a1.603 1.603 0 0 0 1.653-.103l20.8-14.4a1.604 1.604 0 0 0 .506-2.057 1.604 1.604 0 0 0-.506-.573L2.511.285A1.596 1.596 0 0 0 0 1.6v28.8a1.598 1.598 0 0 0 .858 1.417zM3.2 4.654 19.589 16 3.2 27.346V4.655z"
        style="fill:var(--color1, #fff)" />
    </symbol>
    <symbol id="burger-menu" viewBox="0 0 43 32">
      <path d="M0 0h42.667v5.333H0V0zm10.667 13.333h32v5.333h-32v-5.333zM24 26.667h18.667V32H24v-5.333z" />
    </symbol>
    <symbol id="burger-close" viewBox="0 0 32 32">
      <path
        d="M27.179.918 15.864 12.23 4.552.918.781 4.689l11.312 11.312L.781 27.313l3.771 3.771 11.312-11.312 11.315 11.312 3.771-3.771-11.312-11.312L30.95 4.689 27.179.918z" />
    </symbol>
    <symbol id="icon-modal-close" viewBox="0 0 16 16">
      <path
        d="M14.8354 14.364L14.3639 14.8354C14.1036 15.0957 13.6815 15.0957 13.4211 14.8354L8 9.4142L2.5788 14.8353C2.3185 15.0957 1.89638 15.0957 1.63603 14.8353L1.16462 14.3639C0.904273 14.1036 0.904273 13.6815 1.16462 13.4211L6.5858 8L1.16462 2.5788C0.904273 2.3185 0.904273 1.89638 1.16462 1.63603L1.63602 1.16463C1.89637 0.904282 2.3185 0.904282 2.5788 1.16463L8 6.5858L13.4211 1.16462C13.6815 0.904273 14.1036 0.904273 14.3639 1.16462L14.8354 1.63602C15.0957 1.89637 15.0957 2.3185 14.8354 2.5788L9.4142 8L14.8354 13.4211C15.0957 13.6815 15.0957 14.1036 14.8354 14.364Z" />
    </symbol>
    <symbol id="icon-arrow" viewBox="0 0 32 32">
      <path d="m16.611 7.415-1.81 1.81 5.495 5.495H8.026v2.56h12.27l-5.495 5.495 1.81 1.81L25.196 16l-8.585-8.585z" />
    </symbol>
  </defs>
</svg>