<svg xmlns="http://www.w3.org/2000/svg" aria-hidden="true" style="position:absolute;width:0;height:0;overflow:hidden">
  <defs>
    <symbol id="icon-logo-icon" viewBox="0 0 32 32">
      <path d="M17.5 3.14c.384-.041.83.039 1.2.144.838.238 1.518.747 1.922 1.474.42.745.5 1.616.224 2.417-.352.988-1.105 1.484-2.047 1.941l.011 2.881c.673.191 1.328.408 1.939.738a5.663 5.663 0 0 1 2.768 3.493 5.6 5.6 0 0 1-.673 4.508 5.717 5.717 0 0 1-3.538 2.492c-1.959.456-3.622-.038-5.306-.971-.744.742-1.48 1.492-2.206 2.25.325.713.432 1.462.217 2.22-.21.741-.768 1.376-1.48 1.751-.799.421-1.709.498-2.585.265-.869-.232-1.599-.734-2.024-1.487-.418-.741-.454-1.609-.183-2.4.308-.899.936-1.453 1.819-1.864.95-.346 1.736-.232 2.664.079.772-.757 1.499-1.553 2.28-2.303-.858-1.567-1.135-2.902-.689-4.629-.971-.422-1.907-.914-2.879-1.337a3.466 3.466 0 0 1-1.899.966 3.669 3.669 0 0 1-2.556-.573c-.724-.489-1.2-1.233-1.317-2.059-.12-.801.107-1.683.657-2.314.567-.652 1.448-1.045 2.337-1.132a3.467 3.467 0 0 1 2.422.69c.865.675 1.115 1.515 1.22 2.515.921.526 1.976.932 2.935 1.401 1.248-1.375 2.161-1.809 3.98-2.332l.001-2.859a4.333 4.333 0 0 1-.935-.463c-.718-.495-1.189-1.24-1.306-2.065a2.947 2.947 0 0 1 .691-2.296c.601-.702 1.404-1.022 2.336-1.137zm4.012 14.222c-.185-1.967-2.04-3.426-4.151-3.266-2.131.161-3.714 1.908-3.527 3.893s2.072 3.448 4.2 3.262c2.11-.185 3.663-1.922 3.478-3.889zm6.105-4.777c.09-.004.178-.005.267.007.28.038.556.164.71.393.164.243.186.567.209.849.111 1.394.029 2.844.028 4.243 0 1.142.136 2.691-.092 3.791-.072.346-.318.511-.612.698-.112.013-.23.027-.343.021a.952.952 0 0 1-.656-.298c-.162-.178-.157-.535-.171-.759-.103-1.603-.016-3.258-.014-4.866.001-.914-.134-2.663.072-3.479.074-.292.356-.445.603-.6zm-2.581 2.24c.303.052.572.158.749.404.273.379.28 4.091.143 4.621-.075.29-.344.431-.599.57-.292-.016-.676-.04-.871-.276-.29-.351-.266-4.296-.101-4.791.096-.287.413-.409.678-.528z"/>
    </symbol>
  </defs>
</svg>